# xmcd
#
# Track frame offsets:
#	150
#	10995
#	31808
#	52419
#	75144
#	106615
#	125244
#	147828
#	165301
#	180197
#	193279
#	211808
#	230568
#
# Disc length: 3190 seconds
#
# Revision: 21
# Processed by: cddbd v1.5.2PL0 Copyright (c) Steve Scherf et al.
# Submitted via: Jack! The Knife 20 Magnifico
#
DISCID=a30c740d
DTITLE=Grave Digger - Tunes Of War
DYEAR=1996
DGENRE=Metal
TTITLE0=The Brave (Intro)
TTITLE1=Scotland United
TTITLE2=The Dark Of The Sun
TTITLE3=William Wallace (Braveheart)
TTITLE4=The Bruce
TTITLE5=The Battle Of Flodden
TTITLE6=The Ballad Of Mary (Queen Of Scots)
TTITLE7=The Truth
TTITLE8=Cry For Freedom (James The VII)
TTITLE9=Killing Time
TTITLE10=Rebellion (The Clans Are Marching)
TTITLE11=Culloden Muir
TTITLE12=The Fall Of The Brave (Outro)
EXTD=Chris Boltendahl and Uwe Lulis
EXTT0=Boltendahl, Lulis, Göttlich, Arnold
EXTT1=Boltendahl, Lulis, Göttlich, Arnold
EXTT2=Boltendahl, Lulis, Göttlich, Arnold
EXTT3=Boltendahl, Lulis, Göttlich, Arnold
EXTT4=Boltendahl, Lulis, Göttlich, Arnold
EXTT5=Boltendahl, Lulis, Göttlich, Arnold
EXTT6=Boltendahl, Lulis, Göttlich, Arnold
EXTT7=Boltendahl, Lulis, Göttlich, Arnold
EXTT8=Boltendahl, Lulis, Göttlich, Arnold
EXTT9=Boltendahl, Lulis, Göttlich, Arnold
EXTT10=Boltendahl, Lulis, Göttlich, Arnold
EXTT11=Boltendahl, Lulis, Göttlich, Arnold
EXTT12=Boltendahl, Lulis, Göttlich, Arnold
PLAYORDER=
